<?xml version="1.0" encoding="UTF-8" standalone="no"?>
<!DOCTYPE svg PUBLIC "-//W3C//DTD SVG 1.1//EN" "http://www.w3.org/Graphics/SVG/1.1/DTD/svg11.dtd">
<svg width="100%" height="100%" viewBox="0 0 1947 749" version="1.1" xmlns="http://www.w3.org/2000/svg" xmlns:xlink="http://www.w3.org/1999/xlink" xml:space="preserve" xmlns:serif="http://www.serif.com/" style="fill-rule:evenodd;clip-rule:evenodd;stroke-linejoin:round;stroke-miterlimit:2;">
    <g transform="matrix(1,0,0,1,100.015,1.345)">
        <path d="M333.74,316.46C342.14,299.76 350.57,283.19 356.45,265.35C377.29,202.08 380.96,118.37 316.14,80.41C288.77,64.38 256.4,58.47 225.07,55.74C224.53,56.21 224.95,63.88 225.11,65C227.6,82.63 243.62,100.19 252.61,115.44C263.28,133.53 268.35,152.28 268.52,173.35C269.78,173.61 270.05,173.01 270.66,172.12C271.45,170.97 274.31,164.72 275.04,163.01C280.59,149.89 283.48,135.97 284.3,122.06C284.55,117.75 284.25,113.22 284.27,108.92C285.67,108.57 285.72,109.41 286.4,110.16C288.91,112.93 293.76,127.51 295.3,131.98C310.75,176.81 315.92,212.81 291.15,255.53C279.38,275.82 250.3,302.78 226.09,305.15C221.55,305.59 215.49,302.09 211.46,299.7C191.44,287.85 171.9,265.24 164.84,242.89C156.63,216.89 162.65,185.69 177.81,163.61C179.74,174.39 181.38,185.7 185.54,195.98C186.88,199.28 192.45,211.94 196.46,205.83C202.3,196.93 212.66,169.07 212.31,158.75C211.76,142.78 202.83,130.14 198.52,115.71C195.17,104.5 192.23,85.83 192.35,74.19C192.42,67.52 194.48,60.83 195.06,54.22L158.89,54.4C139.59,57.82 135.06,77 132.29,93.75C131.19,100.42 130.76,107.52 130.55,114.49C127.94,200.52 132.61,286.99 130.55,373.06C132.54,385.4 132.49,399.38 137.72,410.86C144.98,426.82 157.49,425.78 172.93,425.1C214.56,423.28 254.03,403.77 285.03,376.79C299.49,364.21 310.27,349.31 322.3,334.55C333.26,337.58 345.94,340.26 356,345.55C357.98,346.59 366.05,352 367.25,353.4C367.8,354.05 368.16,354.81 368.1,355.68C360.53,362.3 353.63,369.74 345.7,375.98C308.71,405.12 264.73,424.98 218.92,435.84C181.44,444.72 141.56,441.02 103.19,441.56C72.66,441.99 41.7,444.17 11.13,443.55C9.05,443.51 0.74,443.37 0.24,441.86L0.24,432.7C10.74,429.99 21.57,428.68 31.8,424.91C58.2,415.21 62.01,396.37 63.14,370.06C66.42,293.16 64.7,210.98 62.51,134C61.84,110.25 66.84,66.4 39.64,54.8C27.71,49.71 13.62,49.15 1.34,45.18C-0.94,43.53 0.43,38.24 0.21,35.55C1.25,35.35 2.3,35 3.37,35.01C16.07,35.07 29.08,35.01 41.76,35.45C88.21,37.02 134.98,38.36 181.9,39.25C185.16,39.31 199.99,39.76 201.43,38.48C202.32,37.69 207.02,27.73 208.98,25.05C215.58,16 227.21,5.64 237.48,1.08C241.08,-0.52 242.31,-0.76 240.39,3.24C234.65,15.19 226.91,26.97 226.54,40.71L271.88,45.22C328.4,53.15 401.11,66.82 431.34,121.13C459.69,172.07 436.1,260.86 406.31,307.7C404.41,310.68 402.25,313.67 400.08,316.46L333.74,316.46ZM235.99,128.67C233.66,125.63 226.65,116.62 223.95,114.86C223.03,114.27 222.45,113.93 221.29,114.15C225.88,128.9 229.68,143.58 227.84,159.29C225.63,178.23 213.27,192.89 206.47,209.86C203.18,218.07 201.25,226.88 199.54,235.53C197.53,236.94 189.93,226.1 188.74,224.23C185.71,219.47 182.98,213.5 180.66,208.33C179.69,206.16 177.75,199.02 176.33,197.67C175.83,197.2 174.96,196.9 174.79,197.73C170.87,210.51 170.84,225.36 173.8,238.41C177.38,254.21 187.4,269.51 199.54,280.12C200.84,281.25 207.05,286.04 208.18,286.47C209.61,287.01 209.43,285.76 209.1,284.8C206.6,277.58 203.92,271.63 203.31,263.62C202.03,246.99 215.67,217.74 222.79,202.19C227.72,191.42 233.52,180.88 238.91,170.36L240.04,197.69C241.47,207.1 242.11,216.86 245.66,225.79C246.18,227.1 250.17,234.89 250.75,235.31C256.87,239.76 267.33,232.97 271.94,228.83C276.01,225.17 279.44,219.08 283.13,215.29C283.91,214.48 284.44,213.53 285.76,213.81C284.96,222.12 284.21,230.4 282.53,238.67C281.03,246.03 278.52,252.99 276.77,260.26C277.99,260.37 278.48,260.45 279.38,259.5C280.86,257.93 285.85,249.47 286.69,247.32C294.56,227.09 296.01,196.76 296.3,175.25C296.32,173.92 297.03,162.17 294.03,164.36C287.62,186.34 275.79,208.56 253.55,217.56C252.61,216.57 254.86,203.23 255.03,200.69C255.86,188.16 256.24,172.79 254.11,160.41C252.74,152.44 241.21,135.46 236.01,128.67L235.99,128.67ZM604.09,602.41C576.4,636.48 534.99,660.71 493.75,674.58C468.01,683.24 450.86,682.11 434.8,707.83C427.76,719.1 423.46,732.97 420.33,745.81C417.2,741.22 416.75,734.76 414.85,729.56C407.7,709.98 395.3,690.67 375.16,683.06C349.58,673.4 326,668.99 300.99,655.28C264.11,635.06 228.54,603.69 212.26,564.13C199.66,533.5 192.65,492.81 192.01,459.99C191.94,456.14 192.04,452.26 192.12,448.42L219.13,444.89L253.51,434.85C255.35,441.37 253.51,448.1 253.49,454.75C253.33,510.46 278.58,574.13 327.52,604.05C348.09,616.63 371.27,623.87 395.04,627.61C404.78,649.44 413.14,672.03 417.72,695.61L419.92,695.58C424.46,671.73 431.82,648.19 443.35,626.83C457.89,624.96 472.15,621.19 485.7,615.58C512.61,604.45 541.03,585.68 557.46,561.42C589.9,513.52 586.22,434.01 583.42,378.25C582.9,367.91 581.26,353.8 573.29,346.42C565.82,339.5 549.68,337 539.87,334.87C538.44,332.01 537.79,328.53 539.27,325.57L691.62,325.57L692.52,326.17C692.95,328.46 693.59,332.89 691.77,334.51C690.18,335.93 676.07,338.12 672.45,339.18C658.49,343.27 651.2,348.78 648.07,363.52C644.24,381.54 646.42,401.16 646.39,419.54C646.31,481.5 645.53,551.44 604.09,602.43L604.09,602.41ZM1200.67,345.39C1209.17,353.73 1211.45,362.44 1210.05,374.45C1207.89,393.01 1182.38,408.81 1167.17,416.26C1163.9,417.86 1159.3,418.38 1156.14,420.99L1155.45,421.8C1154.82,424.37 1174.23,441.9 1176.37,445.72C1211.41,480.29 1252.49,515.89 1303.38,522.29C1312.84,517.68 1314.34,506 1315.01,496.57C1317.23,465.77 1315.27,433.6 1315.23,402.99C1315.22,391.52 1315.29,379.88 1315.11,368.55C1314.98,360.16 1314.78,347.27 1309.47,340.41C1303.26,332.38 1291.24,331.73 1282.19,329.08L1282.42,323.14L1402.84,322.78C1405.96,331.25 1397.06,330.15 1391.16,332.17C1376.19,337.31 1371.58,342.36 1370.52,358.75C1368.33,392.62 1371.18,430.46 1371.36,464.43C1371.42,476.49 1368.31,498.51 1372.1,509.34C1374.25,515.49 1376.72,515.85 1383.01,516.42C1385.3,516.63 1389.62,515.95 1392.04,516.03C1425.89,517.12 1448.32,516.35 1468.62,486.77C1472.1,481.7 1472.85,474.23 1480.68,476.13L1465.43,542.77L1456.88,543.38C1455.86,536.3 1450.58,535.73 1444.4,535.25C1415.55,533.01 1385.27,537.24 1356.57,534.21C1323.99,530.58 1291.72,540.18 1259.44,534.28C1208.97,525.06 1158.84,494.59 1124.65,457.7C1122.22,455.08 1109.74,440.21 1107.84,440.11C1104.55,441.64 1084.98,446.61 1084.31,448.81C1083.48,452.29 1084.3,455.87 1084.23,459.14C1083.94,472.32 1082.03,487.19 1083.47,500.38C1083.87,504.08 1084.44,509.73 1085.74,513.09C1089.75,523.52 1106.89,525.59 1116.47,527.33L1117.19,534.48L997.19,534.15L996.82,527.69C1010.9,523.92 1024.47,523.01 1027.76,506.17C1030.33,493 1028.69,477.67 1028.79,464.34C1028.95,442.6 1028.87,420.53 1028.66,398.49C1028.47,378.5 1032.27,353.57 1013.65,340.12C1000.18,330.39 980.59,332.83 965.33,328.47L965.85,321.79L1091.29,321.65C1122.34,322.14 1177.3,322.42 1200.68,345.37L1200.68,345.39L1200.67,345.39ZM1084.19,428.1C1085.02,428.18 1085.8,428.12 1086.62,427.9C1092.87,426.22 1107.88,418.42 1114.34,415.14C1135.26,404.51 1163.34,384.77 1148.07,357.88C1139.15,342.17 1116.88,338.47 1100.28,339.65C1091.59,340.27 1086.97,341.96 1084.56,350.9C1083.84,353.58 1084.19,354.41 1084.19,356.54L1084.19,428.1ZM1724.75,358.85C1755.17,396.89 1727.16,458.53 1696.34,488.06C1647.91,534.47 1599.21,532.56 1536.74,533.87C1522.64,534.17 1504.85,536.97 1490.86,535.28C1487.01,534.81 1487.47,529.16 1489.45,527.8C1491.69,526.26 1503.76,524.77 1508.69,522.31C1524.07,514.63 1520.69,493.21 1521.26,478.68C1522.58,445.38 1522.56,411.11 1521.22,377.55C1520.53,360.26 1524.15,341.79 1504.87,333.94C1502,332.77 1489.63,330.23 1488.99,329.58C1487.66,328.23 1487.88,324.45 1489.31,323.12C1490.81,321.93 1500.22,322.37 1502.91,322.41C1531.27,322.85 1559.85,322.68 1588.3,322.42C1627.04,322.07 1698.4,325.9 1724.73,358.84L1724.75,358.84L1724.75,358.85ZM1664.94,360.18C1657.18,351.92 1642.45,345.47 1631.5,343.03C1621.69,340.84 1599.43,338.78 1589.9,340.48C1579.21,342.38 1577.33,355.76 1576.71,364.76C1573.74,407.75 1579.02,454.1 1576.71,497.44C1578.97,508.15 1577.95,516.34 1591.38,515.8C1610.92,515.01 1631.69,500.36 1644.59,486.56C1670.84,458.48 1694.99,392.16 1664.93,360.18L1664.94,360.18ZM944.48,493.03C898.84,542.68 818.06,548.88 757.87,524.59C711.88,506.03 679.9,465.41 691.69,413.83C715.77,308.48 872.13,291.49 944.01,356.54C982.88,391.72 978.47,456.06 944.49,493.03L944.48,493.03ZM878.46,354.99C839.41,323.36 777.45,333.69 756.65,381.35C731.68,438.57 764.57,515.08 830.5,520.18C919.76,527.09 939.58,404.51 878.45,354.99L878.46,354.99ZM496.42,324.7L496.32,334.33C485.47,337.46 464.35,339.27 457.57,349.17C451.3,358.32 451.45,369.91 449.92,380.49L449.92,599.28C438.99,616.23 428.49,633.66 423,653.3C421.73,657.84 421.29,663.1 419.99,667.53C419.67,668.62 420.41,668.83 418.47,668.62C418.01,668.14 416.24,657.77 415.71,656.01C411.54,642.4 403.98,626.42 397.13,613.89C395.1,610.18 391.64,606.99 390.06,602.98C388.35,598.64 388.56,585.24 388.55,579.91C388.46,518.08 390.14,455.69 387.76,393.29C387.21,378.78 388.76,356.32 376.98,345.94C368.37,338.36 353.99,337.3 343.22,334.51C341.24,331.63 342.41,328.61 342.78,325.49L496.42,324.7ZM721.71,125.39C739.96,127.44 746.61,138.35 758.05,149.76C778.32,169.99 797.91,190.83 818.03,211.2C828.18,221.48 838.4,231.98 849.15,241.53C849.89,241.55 850.26,238.27 850.32,237.44C850.8,230.08 850.32,222.21 850.32,214.96C850.32,194.16 850.46,173.47 848.78,152.75C847.43,136.16 839.05,133.12 824.05,130.27C820.78,122.91 828.69,125.92 832.7,125.93C840.63,125.95 848.78,124.54 856.68,125.95L896.78,125.39C897.97,132.69 888.29,131.2 883.07,133.05C873.3,136.51 871.15,145.48 870.5,154.96C869.72,166.29 870.51,179.42 870.5,190.99C870.48,204.97 871.25,219.54 871.32,233.63C871.38,245.81 868.72,260.1 872.25,271.67C873.91,277.11 876.21,279.53 881.58,281.83C886.34,283.87 891.68,283.75 896.45,285.7L896.68,290.14C893.07,292.16 889.44,290.3 885.95,290.22C872.92,289.9 840.91,292.26 831.3,284.14C801.63,253.31 771.9,222.59 742.05,192.01C735.13,184.93 728.97,176.66 721.84,169.87C721.2,169.26 719.6,168.13 718.74,168.1C716.64,171.61 718.36,175.15 718.39,178.26C718.63,205.26 716.86,233.51 718.03,260.64C718.43,269.8 721.18,278.73 730.34,282.39C732.95,283.43 741.96,284.48 743.12,285.36C744.43,286.36 743.72,288.82 743.86,290.25L671.82,289.9L672.37,284.94C688.03,282.05 694.96,280 696.53,262.8C699.21,233.41 697.96,196.69 696.6,167.02C696.01,154.16 698.17,137.78 683.15,132.51C680.27,131.5 674.95,130.63 671.88,130.31L671.29,129.45L672.27,125.41L721.75,125.41L721.71,125.39ZM1746.17,125.39L1745.44,131.03C1728.22,133.85 1721.2,138.35 1719.9,156.46C1718.6,174.57 1720.63,193.26 1720.68,210.44C1720.73,227.62 1719.63,245.1 1719.87,262.12C1719.93,266.4 1722.76,277.63 1726.14,280.27C1726.93,280.89 1732.39,283.06 1733.77,283.52C1737.74,284.87 1742.01,285.41 1746.01,286.65L1746.13,291.69C1737.28,291.54 1728.37,292.01 1719.51,291.74C1714.7,291.59 1709.36,290.37 1704.58,290.18C1698.71,289.95 1696.36,291.13 1689.93,289.11C1680.52,286.14 1668.39,271.55 1661.09,263.98C1637.32,239.34 1613.72,213.88 1589.86,189.06C1583.37,182.31 1577.01,175.38 1570.35,168.83L1568.62,170.12C1568.26,173.05 1569.04,176.3 1569.09,178.96C1569.27,187.99 1569.23,197.52 1569.27,206.65C1569.35,224.3 1567.08,250.04 1569.27,266.58C1569.81,270.66 1572.82,277.39 1575.96,280.13C1581.84,285.25 1591.02,284.13 1594.24,286.41C1595.52,287.32 1595.79,291.15 1593.63,291.43L1521.25,290.97C1520.23,283.6 1530.57,285.14 1536.4,282.51C1549.98,276.39 1546.95,260.86 1547.46,248.61C1548.51,223.43 1549.15,197.45 1548.27,172.18C1548.06,166.17 1547.66,151.9 1546.33,146.75C1546.09,145.82 1543.15,139.6 1542.56,138.92C1538.05,133.69 1527.93,131.25 1521.24,131.38L1521.95,126.46L1572.48,126.42C1582.36,127.87 1591.66,132.32 1598.96,139.13C1599.99,140.09 1600.68,142.06 1601.73,143.11C1627.74,169.11 1652.48,196.11 1677.9,222.43C1680.5,225.12 1696.93,241.99 1698.54,242.29L1699.67,241.17C1699.51,216.91 1700.06,192.66 1698.89,168.5C1698.39,158.23 1700.12,139.63 1688.28,134.89C1684.01,133.18 1678.04,132.25 1673.47,131.34L1674.13,126.46C1697.86,125.73 1722.53,128.89 1746.14,125.39L1746.17,125.39ZM1501.3,174.58C1529.67,234.47 1470.29,289.19 1412.92,293.97C1352.96,298.96 1277.53,269.64 1290.56,197.15C1306.6,107.88 1465.49,98.98 1501.3,174.58ZM1354.55,258.29C1368.74,273.78 1386.4,281.11 1407.72,279.77C1469.48,275.91 1478.62,187.38 1435.75,152.79C1411.38,133.13 1373.69,131.56 1351.46,155.35C1325.57,183.05 1329.84,231.31 1354.56,258.29L1354.55,258.29ZM545.89,124.65L545.81,129.79C539.81,130.62 528.99,133.25 525.51,138.35C523.09,141.89 521.47,147.7 521.13,151.96C524.4,183.41 512.86,238.7 532.4,265.13C546.96,284.82 588.44,283.65 600.26,261.02C609.04,244.22 608.77,215.07 608.9,196.23C608.99,182.66 609.5,158.37 606.27,145.6C603.35,134.05 592.97,131.99 582.65,129.86L582.95,126.09L661.79,124.67C663.89,124.41 664.1,128.8 663.49,129.78C663.09,130.42 658.37,130.76 657,131.16C642.68,135.33 638.39,138.55 637.33,154.21C634.46,196.34 649.67,265.35 600.76,286.25C571.49,298.76 524.04,295.51 499.81,273.73C469.33,246.33 479.35,193.22 477.74,156.49C477.28,146.08 474.39,135.98 463.6,132.34C460.71,131.37 448.79,130.67 452.51,125.34C453.33,124.17 464.53,124.58 466.83,124.61C484.69,124.88 502.95,125.49 520.82,125.41C529.26,125.37 537.55,125.06 545.87,124.65L545.89,124.65ZM1048.69,148.13C1032.38,132.88 999.06,134.59 981.23,146.49C941.78,172.81 947.57,246.9 987.25,269.85C1000.27,277.38 1017.93,279.55 1032.82,278.23C1044.87,277.16 1039.99,272.18 1038.64,263.45C1037.29,254.72 1036.33,240.54 1032.31,233.06C1027.12,223.42 1017.07,220.62 1006.95,218.69L1006.33,213.91L1100.34,213.76L1100.58,218.19C1088.38,220.41 1080.13,223.97 1072.17,233.63C1066.32,240.73 1064.29,256.73 1062.66,266.09C1060.59,277.94 1059.04,290.03 1057.3,301.94C1056.9,304.66 1056.97,311.07 1056.35,312.98C1055.64,315.14 1046.83,316.3 1046.1,312.93C1045.04,305.76 1044.34,297.65 1042.93,290.62C1042.75,289.74 1042.63,289.23 1041.81,288.72L1025.29,293.18C980.13,298.05 925.09,277.66 912.13,230.28C893.93,163.79 965.51,120.36 1023.09,122.33C1034.4,122.72 1047.42,128.09 1058.21,121.53C1060.14,120.36 1064.69,112.36 1067.54,117.66C1069.48,121.28 1067.21,122.27 1066.97,124.29C1065.36,138.11 1064.24,152.03 1062.86,165.89C1053.81,169.92 1056.43,164.95 1054.73,158.95C1053.39,154.21 1052.27,151.49 1048.69,148.13ZM1206.78,199.568C1209.5,199.144 1213.39,196.607 1214.97,194.27C1217.16,191.02 1218.67,181.66 1220.24,180.06C1221.51,178.76 1224.15,179.46 1225.89,179.33C1225.34,190.79 1221.97,201.97 1220.65,213.43C1219.84,220.49 1220.06,227.73 1219.15,234.78L1213.48,234.07C1212.04,227.01 1213.04,218.61 1205.12,215.45C1189.82,213.92 1174.75,214.68 1159.51,214.57C1157.33,214.55 1153.36,212.47 1152.01,215.3C1150.78,217.9 1156.97,237.31 1158.61,240.94C1177.77,283.18 1226.15,286.95 1264.16,268.15C1269.27,265.62 1274.87,262.12 1278.79,258.02C1281.57,259.97 1284.1,262.11 1281.3,265.05C1270.13,276.74 1244.75,288.99 1228.93,292.12C1169.72,303.83 1091.97,262.13 1108.56,193.55C1120.66,143.55 1178.46,120.87 1225.55,123.09C1236.95,123.63 1244.56,127.61 1255.63,121.36C1257.01,120.58 1262.02,114.22 1264.55,117.83C1266.11,120.06 1260.01,161.14 1258.93,167C1251.56,169.05 1253.41,163.31 1251.89,158.95C1246.35,143.15 1231.38,138.19 1215.81,137.32C1187.78,135.76 1163.76,151.56 1155.23,177.99C1153.11,184.55 1150.87,192.82 1151.68,199.54L1206.78,199.54L1206.78,199.568ZM300.75,323.95L300.01,334.07C288.36,337.85 269.43,338.33 261.43,348.71C256.23,355.46 253.75,373.42 253.49,381.98C253.42,384.25 255.46,387.16 253.33,389.7C237.85,398.46 222.26,406.75 204.95,411.4C200.89,412.49 192.72,415.97 192.01,410.52C190.96,402.49 192.21,394.27 192.07,386.47C191.9,376.57 190.87,358.24 185.16,349.93C177.07,338.16 158.79,337.53 146.67,332.95L147.01,325.02C149.65,324.92 152.33,324.01 154.93,323.88C165.65,323.36 179.17,325.33 190.13,325.48C215.15,325.83 240.21,325.04 265.1,324.66C276.94,324.48 289.06,325.45 300.74,323.94L300.75,323.95Z" style="fill:rgb(239,230,216);"/>
    </g>
</svg>
